<svg xmlns="http://www.w3.org/2000/svg" width="20" height="20" viewBox="0 0 20 20" fill="none">
<path d="M10.0013 13.334C10.4433 13.334 10.8673 13.5096 11.1798 13.8221C11.4924 14.1347 11.668 14.5586 11.668 15.0007C11.668 15.4427 11.4924 15.8666 11.1798 16.1792C10.8673 16.4917 10.4433 16.6673 10.0013 16.6673C9.55927 16.6673 9.13535 16.4917 8.82279 16.1792C8.51023 15.8666 8.33463 15.4427 8.33463 15.0007C8.33464 14.5586 8.51023 14.1347 8.82279 13.8221C9.13535 13.5096 9.55927 13.334 10.0013 13.334ZM10.0013 8.33398C10.4433 8.33398 10.8673 8.50958 11.1798 8.82214C11.4924 9.1347 11.668 9.55862 11.668 10.0007C11.668 10.4427 11.4924 10.8666 11.1798 11.1792C10.8673 11.4917 10.4433 11.6673 10.0013 11.6673C9.55927 11.6673 9.13535 11.4917 8.82279 11.1792C8.51023 10.8666 8.33464 10.4427 8.33464 10.0007C8.33464 9.55862 8.51023 9.1347 8.82279 8.82214C9.13535 8.50958 9.55927 8.33398 10.0013 8.33398ZM10.0013 3.33398C10.4433 3.33398 10.8673 3.50958 11.1798 3.82214C11.4924 4.1347 11.668 4.55862 11.668 5.00065C11.668 5.44268 11.4924 5.8666 11.1798 6.17916C10.8673 6.49172 10.4433 6.66732 10.0013 6.66732C9.55927 6.66732 9.13535 6.49172 8.82279 6.17916C8.51023 5.8666 8.33464 5.44268 8.33464 5.00065C8.33464 4.55862 8.51023 4.1347 8.82279 3.82214C9.13535 3.50958 9.55927 3.33398 10.0013 3.33398Z" fill="#A1A4A6"/>
</svg>