<svg xmlns="http://www.w3.org/2000/svg" width="15" height="18" viewBox="0 0 15 18" fill="none">
<path d="M7.5 15.8333C5.9529 15.8333 4.46917 15.2188 3.37521 14.1248C2.28125 13.0308 1.66667 11.5471 1.66667 10C1.66667 8.4529 2.28125 6.96917 3.37521 5.87521C4.46917 4.78125 5.9529 4.16667 7.5 4.16667C9.0471 4.16667 10.5308 4.78125 11.6248 5.87521C12.7188 6.96917 13.3333 8.4529 13.3333 10C13.3333 11.5471 12.7188 13.0308 11.6248 14.1248C10.5308 15.2188 9.0471 15.8333 7.5 15.8333ZM13.3583 5.325L14.5417 4.14167C14.1667 3.71667 13.7917 3.33333 13.3667 2.96667L12.1833 4.16667C10.8917 3.11667 9.26667 2.5 7.5 2.5C5.51088 2.5 3.60322 3.29018 2.1967 4.6967C0.790176 6.10322 0 8.01088 0 10C0 11.9891 0.790176 13.8968 2.1967 15.3033C3.60322 16.7098 5.51088 17.5 7.5 17.5C11.6667 17.5 15 14.1417 15 10C15 8.23333 14.3833 6.60833 13.3583 5.325ZM6.66667 10.8333H8.33333V5.83333H6.66667M10 0H5V1.66667H10V0Z" fill="#E3334E"/>
</svg>